<svg width="463" height="137" viewBox="0 0 463 137" fill="none" xmlns="http://www.w3.org/2000/svg">
<path d="M378.102 22.6613L429.866 22.6613C436.403 22.6613 441.737 27.8922 441.864 34.4271L442.716 78.0835" stroke="#282C35" stroke-width="5" stroke-linecap="round"/>
<path d="M84.2207 114.339L32.4558 114.339C25.9197 114.339 20.5856 109.108 20.4581 102.573L19.6063 58.9165" stroke="#282C35" stroke-width="5" stroke-linecap="round"/>
<path d="M188.466 57.0909C188.193 54.7879 187.087 53 185.148 51.7273C183.208 50.4545 180.83 49.8182 178.011 49.8182C175.951 49.8182 174.148 50.1515 172.602 50.8182C171.072 51.4848 169.875 52.4015 169.011 53.5682C168.163 54.7348 167.739 56.0606 167.739 57.5455C167.739 58.7879 168.034 59.8561 168.625 60.75C169.231 61.6288 170.004 62.3636 170.943 62.9545C171.883 63.5303 172.867 64.0076 173.898 64.3864C174.928 64.75 175.875 65.0455 176.739 65.2727L181.466 66.5455C182.678 66.8636 184.027 67.303 185.511 67.8636C187.011 68.4242 188.443 69.1894 189.807 70.1591C191.186 71.1136 192.322 72.3409 193.216 73.8409C194.11 75.3409 194.557 77.1818 194.557 79.3636C194.557 81.8788 193.898 84.1515 192.58 86.1818C191.277 88.2121 189.367 89.8258 186.852 91.0227C184.352 92.2197 181.314 92.8182 177.739 92.8182C174.405 92.8182 171.519 92.2803 169.08 91.2045C166.655 90.1288 164.746 88.6288 163.352 86.7045C161.973 84.7803 161.193 82.5455 161.011 80H166.83C166.981 81.7576 167.572 83.2121 168.602 84.3636C169.648 85.5 170.966 86.3485 172.557 86.9091C174.163 87.4545 175.89 87.7273 177.739 87.7273C179.89 87.7273 181.822 87.3788 183.534 86.6818C185.246 85.9697 186.602 84.9848 187.602 83.7273C188.602 82.4545 189.102 80.9697 189.102 79.2727C189.102 77.7273 188.67 76.4697 187.807 75.5C186.943 74.5303 185.807 73.7424 184.398 73.1364C182.989 72.5303 181.466 72 179.83 71.5455L174.102 69.9091C170.466 68.8636 167.587 67.3712 165.466 65.4318C163.345 63.4924 162.284 60.9545 162.284 57.8182C162.284 55.2121 162.989 52.9394 164.398 51C165.822 49.0455 167.731 47.5303 170.125 46.4545C172.534 45.3636 175.223 44.8182 178.193 44.8182C181.193 44.8182 183.86 45.3561 186.193 46.4318C188.527 47.4924 190.375 48.947 191.739 50.7955C193.117 52.6439 193.845 54.7424 193.92 57.0909H188.466ZM213.369 92.8182C211.157 92.8182 209.15 92.4015 207.347 91.5682C205.544 90.7197 204.112 89.5 203.051 87.9091C201.991 86.303 201.46 84.3636 201.46 82.0909C201.46 80.0909 201.854 78.4697 202.642 77.2273C203.43 75.9697 204.483 74.9848 205.801 74.2727C207.119 73.5606 208.574 73.0303 210.165 72.6818C211.771 72.3182 213.384 72.0303 215.006 71.8182C217.127 71.5455 218.847 71.3409 220.165 71.2045C221.498 71.053 222.468 70.803 223.074 70.4545C223.695 70.1061 224.006 69.5 224.006 68.6364V68.4545C224.006 66.2121 223.392 64.4697 222.165 63.2273C220.953 61.9848 219.112 61.3636 216.642 61.3636C214.081 61.3636 212.074 61.9242 210.619 63.0455C209.165 64.1667 208.142 65.3636 207.551 66.6364L202.46 64.8182C203.369 62.697 204.581 61.0455 206.097 59.8636C207.627 58.6667 209.294 57.8333 211.097 57.3636C212.915 56.8788 214.703 56.6364 216.46 56.6364C217.581 56.6364 218.869 56.7727 220.324 57.0455C221.794 57.303 223.21 57.8409 224.574 58.6591C225.953 59.4773 227.097 60.7121 228.006 62.3636C228.915 64.0152 229.369 66.2273 229.369 69V92H224.006V87.2727H223.733C223.369 88.0303 222.763 88.8409 221.915 89.7045C221.066 90.5682 219.938 91.303 218.528 91.9091C217.119 92.5152 215.4 92.8182 213.369 92.8182ZM214.188 88C216.309 88 218.097 87.5833 219.551 86.75C221.021 85.9167 222.127 84.8409 222.869 83.5227C223.627 82.2045 224.006 80.8182 224.006 79.3636V74.4545C223.778 74.7273 223.278 74.9773 222.506 75.2045C221.748 75.4167 220.869 75.6061 219.869 75.7727C218.884 75.9242 217.922 76.0606 216.983 76.1818C216.059 76.2879 215.309 76.3788 214.733 76.4545C213.339 76.6364 212.036 76.9318 210.824 77.3409C209.627 77.7348 208.657 78.3333 207.915 79.1364C207.188 79.9242 206.824 81 206.824 82.3636C206.824 84.2273 207.513 85.6364 208.892 86.5909C210.286 87.5303 212.051 88 214.188 88ZM266.455 57.0909L253.545 92H248.091L235.182 57.0909H241L250.636 84.9091H251L260.636 57.0909H266.455ZM286.92 92.7273C283.557 92.7273 280.655 91.9848 278.216 90.5C275.792 89 273.92 86.9091 272.602 84.2273C271.299 81.5303 270.648 78.3939 270.648 74.8182C270.648 71.2424 271.299 68.0909 272.602 65.3636C273.92 62.6212 275.754 60.4848 278.102 58.9545C280.466 57.4091 283.223 56.6364 286.375 56.6364C288.193 56.6364 289.989 56.9394 291.761 57.5455C293.534 58.1515 295.148 59.1364 296.602 60.5C298.057 61.8485 299.216 63.6364 300.08 65.8636C300.943 68.0909 301.375 70.8333 301.375 74.0909V76.3636H274.466V71.7273H295.92C295.92 69.7576 295.527 68 294.739 66.4545C293.966 64.9091 292.86 63.6894 291.42 62.7955C289.996 61.9015 288.314 61.4545 286.375 61.4545C284.239 61.4545 282.39 61.9848 280.83 63.0455C279.284 64.0909 278.095 65.4545 277.261 67.1364C276.428 68.8182 276.011 70.6212 276.011 72.5455V75.6364C276.011 78.2727 276.466 80.5076 277.375 82.3409C278.299 84.1591 279.58 85.5455 281.216 86.5C282.852 87.4394 284.754 87.9091 286.92 87.9091C288.33 87.9091 289.602 87.7121 290.739 87.3182C291.89 86.9091 292.883 86.303 293.716 85.5C294.549 84.6818 295.193 83.6667 295.648 82.4545L300.83 83.9091C300.284 85.6667 299.367 87.2121 298.08 88.5455C296.792 89.8636 295.201 90.8939 293.307 91.6364C291.413 92.3636 289.284 92.7273 286.92 92.7273Z" fill="#0E1743"/>
</svg>
