<svg width="377" height="71" viewBox="0 0 377 71" fill="none" xmlns="http://www.w3.org/2000/svg">
<path d="M40.0586 5.752L36.8906 14.008C33.7546 12.344 30.3306 11.512 26.6186 11.512C22.9066 11.512 19.8986 12.184 17.5946 13.528C15.3546 14.872 14.2346 16.984 14.2346 19.864C14.2346 23.384 17.1786 27.384 23.0666 31.864C25.4986 33.72 27.9306 35.64 30.3626 37.624C32.7946 39.544 34.8746 41.784 36.6026 44.344C38.3306 46.84 39.1946 49.208 39.1946 51.448C39.1946 53.688 38.8106 55.736 38.0426 57.592C37.3386 59.384 36.1226 61.24 34.3946 63.16C32.6666 65.08 29.9786 66.648 26.3306 67.864C22.6826 69.08 18.5866 69.688 14.0426 69.688C9.49863 69.688 5.46663 69.144 1.94663 68.056C1.24263 66.968 0.890625 66.008 0.890625 65.176C0.890625 64.344 0.922625 63.928 0.986625 63.928C1.11463 63.928 1.59463 64.056 2.42663 64.312C5.05063 65.016 7.67463 65.368 10.2986 65.368C15.6746 65.368 20.0266 64.28 23.3546 62.104C26.7466 59.928 28.4426 57.144 28.4426 53.752C28.4426 49.912 25.6906 45.784 20.1866 41.368C17.8826 39.512 15.5786 37.656 13.2746 35.8C7.77063 31.384 5.01863 27.064 5.01863 22.84C5.01863 20.152 6.13863 17.528 8.37863 14.968C13.3066 9.272 23.3226 5.368 38.4266 3.256L40.0586 5.752ZM49.8964 46.84C48.8084 45.816 48.2644 44.536 48.2644 43C48.2644 42.488 48.3604 42.232 48.5524 42.232C49.8964 42.488 51.8804 42.616 54.5044 42.616H56.3284C56.0724 24.76 53.5124 12.984 48.6484 7.288L53.1604 0.855999C57.9604 4.12 64.8084 7.704 73.7044 11.608C76.4564 12.824 79.1444 14.2 81.7684 15.736C86.9524 18.744 89.5444 22.648 89.5444 27.448C89.5444 32.248 87.4004 36.472 83.1124 40.12C78.8884 43.768 71.8804 45.976 62.0884 46.744C61.7044 51.096 60.8724 58.456 59.5924 68.824C58.6324 69.784 57.6084 70.264 56.5204 70.264C55.4964 70.264 54.9844 70.168 54.9844 69.976C55.8164 61.208 56.2644 53.528 56.3284 46.936H55.8484C53.1604 46.936 51.1764 46.904 49.8964 46.84ZM61.1284 11.608C62.2164 17.688 62.7604 23.512 62.7604 29.08C62.7604 34.648 62.6324 39 62.3764 42.136C68.1364 41.24 72.4884 39.544 75.4324 37.048C78.3764 34.488 79.8484 31.576 79.8484 28.312C79.8484 25.368 78.9524 23 77.1604 21.208C76.2004 20.184 75.3044 19.32 74.4724 18.616C73.7044 17.912 72.3924 17.08 70.5364 16.12C67.6564 14.648 64.5204 13.144 61.1284 11.608ZM129.072 42.712L128.976 40.504C127.44 40.312 125.52 39.928 123.216 39.352C122.256 38.456 121.776 37.144 121.776 35.416C121.776 34.84 121.872 34.552 122.064 34.552C122.32 34.552 122.736 34.616 123.312 34.744C124.656 35.192 126.512 35.544 128.88 35.8C128.624 30.936 128.08 26.04 127.248 21.112C126.48 16.12 125.776 12.344 125.136 9.784L124.176 5.944L132.528 2.008L135.024 3.544C135.984 9.24 136.464 14.872 136.464 20.44C136.464 26.008 136.304 31.192 135.984 35.992C144.624 35.608 151.792 34.136 157.488 31.576C157.424 30.232 157.392 27.192 157.392 22.456C157.392 17.656 158 11.352 159.216 3.544L161.712 2.008L169.872 5.944C166.928 13.496 165.456 25.112 165.456 40.792C165.456 52.44 165.936 62.168 166.896 69.976C166.896 70.168 166.64 70.264 166.128 70.264C164.464 70.264 163.216 69.784 162.384 68.824C160.08 57.112 158.608 47.16 157.968 38.968C151.184 40.376 144.944 41.08 139.248 41.08H135.6C134.896 48.504 133.648 57.592 131.856 68.344C131.408 68.856 130.672 69.272 129.648 69.592C128.688 69.976 127.856 70.168 127.152 70.168C126.512 70.168 126.192 70.008 126.192 69.688L126.48 68.632C128.208 62.296 129.072 53.656 129.072 42.712ZM189.967 22.072C189.071 30.584 188.623 37.4 188.623 42.52C188.623 52.568 190.511 57.592 194.287 57.592C196.655 57.592 199.119 55.992 201.679 52.792C204.239 49.528 206.479 44.888 208.399 38.872C208.335 37.848 208.303 35.768 208.303 32.632C208.303 29.496 208.591 26.296 209.167 23.032L216.847 19.672L219.247 21.016C217.135 27.224 216.079 34.392 216.079 42.52C216.079 46.04 216.335 50.872 216.847 57.016C217.423 63.16 217.999 67.288 218.575 69.4C218.575 69.592 218.063 69.688 217.039 69.688C216.079 69.688 215.151 69.24 214.255 68.344C212.335 63.736 210.703 56.792 209.359 47.512C206.735 53.848 203.535 59.032 199.759 63.064C196.047 67.096 192.527 69.112 189.199 69.112C184.079 69.112 181.519 65.496 181.519 58.264C181.519 53.336 181.775 48.696 182.287 44.344C182.863 39.992 183.407 35.864 183.919 31.96C184.495 28.056 184.911 25.08 185.167 23.032C185.487 22.712 186.127 22.424 187.087 22.168C188.047 21.848 188.751 21.688 189.199 21.688C189.711 21.688 189.967 21.816 189.967 22.072ZM230.646 67.864C232.182 59.8 232.95 52.472 232.95 45.88C232.95 39.288 232.694 34.648 232.182 31.96C231.734 29.208 231.222 26.904 230.646 25.048C230.134 23.192 229.846 22.136 229.782 21.88L232.086 20.44L239.862 24.184C240.374 27.896 240.63 31 240.63 33.496C240.63 35.992 240.598 37.816 240.534 38.968C243.222 33.72 246.198 29.528 249.462 26.392C252.726 23.256 255.734 21.688 258.486 21.688C263.798 21.688 266.454 25.304 266.454 32.536C266.454 38.168 265.91 44.92 264.822 52.792C263.734 60.6 263.062 65.592 262.806 67.768C262.038 68.664 260.63 69.112 258.582 69.112C258.134 69.112 257.91 69.016 257.91 68.824C258.87 60.632 259.35 53.784 259.35 48.28C259.35 38.232 257.462 33.208 253.686 33.208C250.806 33.208 247.83 35.544 244.758 40.216C241.75 44.888 239.286 51.48 237.366 59.992H237.174C236.278 63.064 235.542 65.368 234.966 66.904C234.07 67.8 233.11 68.248 232.086 68.248C231.126 68.248 230.646 68.12 230.646 67.864ZM302.939 23.128L300.059 29.848C296.923 30.488 293.723 30.84 290.459 30.904C289.243 47.928 287.643 60.216 285.659 67.768C284.891 68.664 283.547 69.112 281.627 69.112C281.179 69.112 280.955 69.016 280.955 68.824C282.363 59.736 283.067 50.904 283.067 42.328C283.067 39.192 282.971 35.32 282.779 30.712C279.387 30.328 276.731 29.88 274.811 29.368C274.427 29.176 274.011 28.536 273.563 27.448C273.179 26.296 272.955 25.4 272.891 24.76L273.275 24.184C275.771 24.696 278.843 24.952 282.491 24.952C282.107 17.912 281.755 13.176 281.435 10.744L283.739 9.112L291.515 13.24L290.939 24.472C294.331 24.088 298.011 23.128 301.979 21.592L302.939 23.128ZM338.217 31.672C337.513 34.616 336.105 37.272 333.993 39.64C331.881 42.008 329.481 43.896 326.793 45.304C321.865 47.864 317.545 49.496 313.833 50.2C314.089 53.4 314.921 55.768 316.329 57.304C317.737 58.84 319.433 59.608 321.417 59.608C327.049 59.608 332.137 54.872 336.681 45.4C336.745 45.016 337.065 44.824 337.641 44.824C338.217 44.824 339.081 45.272 340.233 46.168C337.481 52.824 334.089 58.328 330.057 62.68C326.089 66.968 322.121 69.112 318.153 69.112C314.185 69.112 311.081 67.672 308.841 64.792C306.665 61.912 305.577 58.04 305.577 53.176C305.577 46.456 307.401 40.248 311.049 34.552C313.033 31.48 315.817 28.792 319.401 26.488C323.049 24.12 327.369 22.36 332.361 21.208C336.265 22.552 338.217 26.04 338.217 31.672ZM326.985 28.792C324.297 28.792 321.513 30.36 318.633 33.496C315.753 36.568 314.153 40.856 313.833 46.36C319.145 44.952 323.209 42.904 326.025 40.216C328.905 37.464 330.345 34.776 330.345 32.152C330.345 31.192 330.057 30.392 329.481 29.752C328.905 29.112 328.073 28.792 326.985 28.792ZM376.404 22.456L374.1 33.496C373.268 33.24 372.148 33.112 370.74 33.112C369.332 33.112 367.988 33.56 366.708 34.456C365.428 35.352 364.244 36.888 363.156 39.064C362.068 41.24 361.14 43.512 360.372 45.88C359.604 48.248 358.836 50.776 358.068 53.464C357.3 56.152 356.66 58.392 356.148 60.184C355.7 61.912 354.772 64.664 353.364 68.44C352.532 69.4 351.348 69.88 349.812 69.88C349.3 69.88 349.044 69.752 349.044 69.496C350.708 61.368 351.54 53.304 351.54 45.304C351.54 37.24 350.548 29.496 348.564 22.072L350.868 20.44L358.644 24.568C359.092 29.176 359.316 33.24 359.316 36.76V38.104C363.284 28.824 368.308 23 374.388 20.632L376.404 22.456Z" fill="#282C35"/>
</svg>
